<svg
  width="336"
  height="130"
  viewBox="0 0 336 130"
  fill="none"
  xmlns="http://www.w3.org/2000/svg">
  <rect x="0.995117" y="0.00244141" width="335" height="129" rx="25" fill="black" />
  <rect x="166.309" y="9.94861" width="161" height="109" rx="18" fill="#C1FB50" />
  <path
    d="M228.845 86.6486C238.645 86.6486 245.395 79.2986 245.395 67.2986C245.395 55.2986 238.645 48.2486 228.845 48.2486C219.045 48.2486 212.295 55.2486 212.295 67.2986C212.295 79.2986 219.045 86.6486 228.845 86.6486ZM228.845 80.2486C223.345 80.2486 219.845 75.1986 219.845 67.2986C219.845 59.3486 223.345 54.5986 228.845 54.5986C234.345 54.5986 237.845 59.3486 237.845 67.2986C237.845 75.1986 234.345 80.2486 228.845 80.2486ZM251.121 85.9486H258.121V71.0986C258.121 66.8486 257.571 62.1986 257.221 58.1986H257.471L261.221 66.1486L271.921 85.9486H279.421V48.8986H272.421V63.6986C272.421 67.8986 273.021 72.7986 273.371 76.6486H273.121L269.421 68.6486L258.671 48.8986H251.121V85.9486Z"
    fill="black"
  />
</svg>