<svg width="226" height="218" viewBox="0 0 226 218" fill="none" xmlns="http://www.w3.org/2000/svg">
<circle cx="113.448" cy="108.941" r="26.7277" stroke="white" stroke-width="12.4257"/>
<path d="M49 102.728C45.5687 102.728 42.7871 105.509 42.7871 108.941C42.7871 112.372 45.5687 115.153 49 115.153V102.728ZM79.0762 115.153C82.5074 115.153 85.289 112.372 85.289 108.941C85.289 105.509 82.5074 102.728 79.0762 102.728V115.153ZM49 115.153H79.0762V102.728H49V115.153Z" fill="white"/>
<path d="M146.39 102.728C142.958 102.728 140.177 105.509 140.177 108.941C140.177 112.372 142.958 115.153 146.39 115.153V102.728ZM176.466 115.153C179.897 115.153 182.679 112.372 182.679 108.941C182.679 105.509 179.897 102.728 176.466 102.728V115.153ZM146.39 115.153H176.466V102.728H146.39V115.153Z" fill="white"/>
</svg>
