<svg width="377" height="377" viewBox="0 0 377 377" fill="none" xmlns="http://www.w3.org/2000/svg">
<path d="M108 123C108 114.716 114.716 108 123 108H354C362.284 108 369 114.716 369 123V354C369 362.284 362.284 369 354 369H123C114.716 369 108 362.284 108 354V123Z" fill="#202020"/>
<path fill-rule="evenodd" clip-rule="evenodd" d="M100.5 123C100.5 110.574 110.574 100.5 123 100.5H354C366.426 100.5 376.5 110.574 376.5 123V354C376.5 366.426 366.426 376.5 354 376.5H123C110.574 376.5 100.5 366.426 100.5 354V123ZM123 115.5C118.858 115.5 115.5 118.858 115.5 123V354C115.5 358.142 118.858 361.5 123 361.5H354C358.142 361.5 361.5 358.142 361.5 354V123C361.5 118.858 358.142 115.5 354 115.5H123Z" fill="#5D5D5D"/>
<path d="M58 73C58 64.7157 64.7157 58 73 58H304C312.284 58 319 64.7157 319 73V304C319 312.284 312.284 319 304 319H73C64.7157 319 58 312.284 58 304V73Z" fill="#202020"/>
<path fill-rule="evenodd" clip-rule="evenodd" d="M50.5 73C50.5 60.5736 60.5736 50.5 73 50.5H304C316.426 50.5 326.5 60.5736 326.5 73V304C326.5 316.426 316.426 326.5 304 326.5H73C60.5736 326.5 50.5 316.426 50.5 304V73ZM73 65.5C68.8579 65.5 65.5 68.8579 65.5 73V304C65.5 308.142 68.8579 311.5 73 311.5H304C308.142 311.5 311.5 308.142 311.5 304V73C311.5 68.8579 308.142 65.5 304 65.5H73Z" fill="#5D5D5D"/>
<path d="M8 23C8 14.7157 14.7157 8 23 8H254C262.284 8 269 14.7157 269 23V254C269 262.284 262.284 269 254 269H23C14.7157 269 8 262.284 8 254V23Z" fill="#202020"/>
<path fill-rule="evenodd" clip-rule="evenodd" d="M0.5 23C0.5 10.5736 10.5736 0.5 23 0.5H254C266.426 0.5 276.5 10.5736 276.5 23V254C276.5 266.426 266.426 276.5 254 276.5H23C10.5736 276.5 0.5 266.426 0.5 254V23ZM23 15.5C18.8579 15.5 15.5 18.8579 15.5 23V254C15.5 258.142 18.8579 261.5 23 261.5H254C258.142 261.5 261.5 258.142 261.5 254V23C261.5 18.8579 258.142 15.5 254 15.5H23Z" fill="#C1FB50"/>
<path d="M176.5 133.67C179.833 135.594 179.833 140.406 176.5 142.33L124 172.641C120.667 174.566 116.5 172.16 116.5 168.311L116.5 107.689C116.5 103.84 120.667 101.434 124 103.359L176.5 133.67Z" fill="#C1FB50"/>
</svg>
