<svg width="538" height="277" viewBox="0 0 538 277" fill="none" xmlns="http://www.w3.org/2000/svg">
<path fill-rule="evenodd" clip-rule="evenodd" d="M0.5 23C0.5 10.5736 10.5736 0.5 23 0.5H276.5V276.5H23C10.5736 276.5 0.5 266.426 0.5 254V23ZM23 15.5C18.8579 15.5 15.5 18.8579 15.5 23V254C15.5 258.142 18.8579 261.5 23 261.5H261.5V15.5H23Z" fill="#C1FB50"/>
<path fill-rule="evenodd" clip-rule="evenodd" d="M261.5 0.5H515C527.426 0.5 537.5 10.5736 537.5 23V254C537.5 266.426 527.426 276.5 515 276.5H261.5V0.5ZM276.5 15.5V261.5H515C519.142 261.5 522.5 258.142 522.5 254V23C522.5 18.8579 519.142 15.5 515 15.5H276.5Z" fill="#C1FB50"/>
<path d="M159.025 180H185.863L150.457 91.7998H126.643L91.9932 180H118.075L122.989 165.762H154.237L159.025 180ZM148.315 146.736H128.911L138.487 119.394L148.315 146.736Z" fill="#C1FB50"/>
<path d="M423.224 133.506C429.902 129.348 434.312 122.292 434.312 114.48C434.312 101.376 422.846 91.9258 407.222 91.9258H367.406V180.126H408.104C424.358 180.126 436.706 169.29 436.706 154.926C436.706 145.35 431.54 137.412 423.224 133.506ZM411.254 118.512C411.254 123.048 408.104 126.198 403.064 126.198H390.716V110.826H403.064C408.104 110.826 411.254 113.85 411.254 118.512ZM403.946 160.092H390.716V144.09H403.946C409.238 144.09 412.64 147.366 412.64 152.028C412.64 156.816 409.238 160.092 403.946 160.092Z" fill="#C1FB50"/>
</svg>
