<svg width="370" height="426" viewBox="0 0 370 426" fill="none" xmlns="http://www.w3.org/2000/svg">
<path fill-rule="evenodd" clip-rule="evenodd" d="M46.4268 59C46.4268 46.5736 56.5003 36.5 68.9268 36.5H299.575C312.001 36.5 322.075 46.5736 322.075 59V290C322.075 302.426 312.001 312.5 299.575 312.5H68.9268C56.5004 312.5 46.4268 302.426 46.4268 290V59ZM68.9268 51.5C64.7846 51.5 61.4268 54.8579 61.4268 59V290C61.4268 294.142 64.7846 297.5 68.9268 297.5H299.575C303.717 297.5 307.075 294.142 307.075 290V59C307.075 54.8579 303.717 51.5 299.575 51.5H68.9268Z" fill="#5D5D5D"/>
<mask id="mask0" style="mask-type:alpha" maskUnits="userSpaceOnUse" x="183" y="44" width="132" height="261">
<rect x="183.752" y="44" width="130.823" height="261" fill="#5D5D5D"/>
</mask>
<g mask="url(#mask0)">
<path d="M215.963 169.506C222.641 165.348 227.051 158.292 227.051 150.48C227.051 137.376 215.585 127.926 199.961 127.926H160.145V216.126H200.843C217.097 216.126 229.445 205.29 229.445 190.926C229.445 181.35 224.279 173.412 215.963 169.506ZM203.993 154.512C203.993 159.048 200.843 162.198 195.803 162.198H183.455V146.826H195.803C200.843 146.826 203.993 149.85 203.993 154.512ZM196.685 196.092H183.455V180.09H196.685C201.977 180.09 205.379 183.366 205.379 188.028C205.379 192.816 201.977 196.092 196.685 196.092Z" fill="#5D5D5D"/>
</g>
<mask id="mask1" style="mask-type:alpha" maskUnits="userSpaceOnUse" x="55" y="44" width="132" height="261">
<rect x="55.9248" y="44" width="130.823" height="261" fill="#5D5D5D"/>
</mask>
<g mask="url(#mask1)">
<path d="M201.779 216H228.617L193.211 127.8H169.397L134.747 216H160.829L165.743 201.762H196.991L201.779 216ZM191.069 182.736H171.665L181.241 155.394L191.069 182.736Z" fill="#5D5D5D"/>
</g>
<path fill-rule="evenodd" clip-rule="evenodd" d="M184.75 -2.18852e-07C187.511 -3.39721e-07 189.75 2.23858 189.75 5L189.75 395C189.75 397.761 187.511 400 184.75 400C181.989 400 179.75 397.761 179.75 395L179.75 5C179.75 2.23858 181.989 -9.79835e-08 184.75 -2.18852e-07Z" fill="#C1FB50"/>
<ellipse cx="184.75" cy="395" rx="24.9663" ry="25" fill="#C1FB50"/>
<path fill-rule="evenodd" clip-rule="evenodd" d="M23.458 395C23.458 390.858 26.8159 387.5 30.958 387.5H100.364C104.506 387.5 107.864 390.858 107.864 395C107.864 399.142 104.506 402.5 100.364 402.5H30.958C26.8159 402.5 23.458 399.142 23.458 395Z" fill="#C1FB50"/>
<path d="M4.49241 397.597C2.49443 396.442 2.49443 393.558 4.49241 392.403L41.9357 370.756C43.9357 369.599 46.4372 371.043 46.4372 373.353L46.4372 416.647C46.4372 418.957 43.9357 420.401 41.9357 419.244L4.49241 397.597Z" fill="#C1FB50"/>
<path fill-rule="evenodd" clip-rule="evenodd" d="M346.542 395C346.542 399.142 343.184 402.5 339.042 402.5H269.636C265.494 402.5 262.136 399.142 262.136 395C262.136 390.858 265.494 387.5 269.636 387.5H339.042C343.184 387.5 346.542 390.858 346.542 395Z" fill="#C1FB50"/>
<path d="M365.508 392.403C367.506 393.558 367.506 396.442 365.508 397.597L328.064 419.244C326.064 420.401 323.563 418.957 323.563 416.647L323.563 373.353C323.563 371.043 326.064 369.599 328.064 370.756L365.508 392.403Z" fill="#C1FB50"/>
</svg>
