<svg width="90" height="90" viewBox="0 0 90 90" fill="none" xmlns="http://www.w3.org/2000/svg">
<circle cx="45" cy="45" r="42.5" stroke="white" stroke-width="5"/>
<path d="M41.0993 59.2031H49.3447V67.1995H41.0993V59.2031ZM31 35.2812C31.2214 30.0241 33.0567 26.298 36.5062 24.1029C38.6828 22.701 41.3575 22 44.5303 22C48.6991 22 52.1578 22.9961 54.9062 24.9883C57.6732 26.9805 59.0566 29.9319 59.0566 33.8424C59.0566 36.2404 58.4571 38.2603 57.2581 39.902C56.5572 40.8981 55.2106 42.1709 53.2184 43.7204L51.2539 45.2422C50.184 46.0723 49.4739 47.0407 49.1234 48.1475C48.902 48.8484 48.7821 50.9367 48.7637 52.4124H41.293C41.4036 49.295 41.6988 46.1461 42.1784 44.9655C42.658 43.7665 43.8939 42.3923 45.8861 40.8428L47.9059 39.2656C48.57 38.7676 49.1049 38.2234 49.5107 37.6331C50.2486 36.6186 50.6175 35.5026 50.6175 34.2852C50.6175 32.8832 50.2025 31.6105 49.3724 30.4668C48.5608 29.3047 47.0666 28.7236 44.89 28.7236C42.7502 28.7236 41.2284 29.4338 40.3245 30.8542C39.4391 32.2745 38.9964 33.7502 38.9964 35.2812H31Z" fill="white"/>
</svg>
