<svg width="190" height="190" viewBox="0 0 190 190" fill="none" xmlns="http://www.w3.org/2000/svg">
<path fill-rule="evenodd" clip-rule="evenodd" d="M52.1964 110.309V51.2208H111.285V68.7612H74.4739C70.7247 68.7612 67.6854 71.8005 67.6854 75.5496V110.309H52.1964ZM67.6854 121.496H47.7982C44.0491 121.496 41.0098 118.456 41.0098 114.707V46.8226C41.0098 43.0735 44.0491 40.0342 47.7982 40.0342H115.683C119.432 40.0342 122.471 43.0735 122.471 46.8226V68.7612H142.358C146.108 68.7612 149.147 71.8005 149.147 75.5497V143.434C149.147 147.183 146.108 150.223 142.358 150.223H74.4739C70.7247 150.223 67.6854 147.183 67.6854 143.434V121.496ZM122.471 79.9478H137.96V139.036H78.872V121.496H115.683C119.432 121.496 122.471 118.456 122.471 114.707V79.9478ZM111.285 79.9478V110.309H78.872V79.9478H111.285Z" fill="#C1FB50"/>
</svg>
