<svg width="464" height="84" viewBox="0 0 464 84" fill="none" xmlns="http://www.w3.org/2000/svg">
<path d="M34.2125 35.0179C37.6575 32.8729 39.9325 29.2329 39.9325 25.2029C39.9325 18.4429 34.0175 13.5679 25.9575 13.5679H5.4175V59.0679H26.4125C34.7975 59.0679 41.1675 53.4779 41.1675 46.0679C41.1675 41.1279 38.5025 37.0329 34.2125 35.0179ZM28.0375 27.2829C28.0375 29.6229 26.4125 31.2479 23.8125 31.2479H17.4425V23.3179H23.8125C26.4125 23.3179 28.0375 24.8779 28.0375 27.2829ZM24.2675 48.7329H17.4425V40.4779H24.2675C26.9975 40.4779 28.7525 42.1679 28.7525 44.5729C28.7525 47.0429 26.9975 48.7329 24.2675 48.7329ZM83.3114 41.1279C83.3114 30.8579 75.5114 22.7979 64.2014 22.7979C53.1514 22.7979 45.1564 30.7279 45.1564 41.4529C45.1564 52.1779 53.2164 60.1729 64.2014 60.1729C72.9764 60.1729 80.1264 55.1679 82.5964 47.1729H70.5064C69.4014 49.2529 66.9964 50.4879 64.2014 50.4879C60.3664 50.4879 57.8314 48.4079 57.0514 44.3779H83.1164C83.2464 43.2729 83.3114 42.2329 83.3114 41.1279ZM64.2014 32.2879C67.8414 32.2879 70.3764 34.1729 71.4164 37.6829H57.2464C58.2214 34.1729 60.6914 32.2879 64.2014 32.2879ZM111.706 24.4879H103.451V22.1479C103.451 20.3279 104.491 19.2879 106.311 19.2879H111.641V9.99293H103.191C95.7807 9.99293 91.8807 14.0879 91.8807 21.1729V24.4879H85.9007L85.9657 33.9779H91.7507V59.0029H103.841V33.9779H111.706V24.4879ZM133.278 60.1729C144.718 60.1729 152.973 52.3079 152.973 41.4529C152.973 30.5979 144.718 22.7979 133.278 22.7979C121.838 22.7979 113.648 30.5979 113.648 41.4529C113.648 52.3079 121.838 60.1729 133.278 60.1729ZM133.278 49.3179C128.923 49.3179 125.738 46.1329 125.738 41.5179C125.738 36.8379 128.923 33.6529 133.278 33.6529C137.698 33.6529 140.883 36.9029 140.883 41.5179C140.883 46.1329 137.698 49.3179 133.278 49.3179ZM178.203 23.7729C174.043 23.7729 171.053 24.9429 168.583 27.8029L166.698 23.9029H158.573V59.0029H170.663V41.1929C170.663 36.7079 172.483 34.8229 176.708 34.8229H181.453V23.7729H178.203ZM221.563 41.1279C221.563 30.8579 213.763 22.7979 202.453 22.7979C191.403 22.7979 183.408 30.7279 183.408 41.4529C183.408 52.1779 191.468 60.1729 202.453 60.1729C211.228 60.1729 218.378 55.1679 220.848 47.1729H208.758C207.653 49.2529 205.248 50.4879 202.453 50.4879C198.618 50.4879 196.083 48.4079 195.303 44.3779H221.368C221.498 43.2729 221.563 42.2329 221.563 41.1279ZM202.453 32.2879C206.093 32.2879 208.628 34.1729 209.668 37.6829H195.498C196.473 34.1729 198.943 32.2879 202.453 32.2879ZM280.871 59.0029C278.141 55.9479 275.671 53.0879 273.331 50.4229C275.931 46.7829 277.491 42.2979 277.686 37.2279H267.871C267.676 39.1129 267.221 40.9329 266.441 42.5579C264.361 40.1529 262.541 38.0079 260.981 36.1229C265.856 33.1329 270.536 29.6229 270.536 23.3829C270.536 16.1029 264.426 11.9429 256.821 11.9429C249.151 11.9429 243.041 16.0379 243.041 23.4479C243.041 26.0479 243.756 28.7129 247.331 33.7829C243.106 36.6429 239.466 40.4129 239.466 46.5879C239.466 54.5829 245.511 60.0429 254.286 60.0429C258.901 60.0429 263.191 58.8079 266.766 56.6629C267.416 57.4429 268.196 58.2229 268.911 59.0029H280.871ZM256.821 20.4579C258.771 20.4579 260.201 21.6929 260.201 23.7729C260.201 25.8529 258.316 27.4129 255.586 29.0379C254.156 26.7629 253.441 25.0729 253.441 23.7729C253.441 21.6929 254.871 20.4579 256.821 20.4579ZM255.196 50.4879C252.271 50.4879 250.386 48.7979 250.386 46.2629C250.386 44.2479 251.426 42.6229 253.116 41.1929C255.066 43.5329 257.341 46.1979 260.071 49.2529C258.576 50.0329 256.886 50.4879 255.196 50.4879ZM325.729 59.0029H339.574L321.309 13.5029H309.024L291.149 59.0029H304.604L307.139 51.6579H323.259L325.729 59.0029ZM320.204 41.8429H310.194L315.134 27.7379L320.204 41.8429ZM364.66 24.4879H356.405V22.1479C356.405 20.3279 357.445 19.2879 359.265 19.2879H364.595V9.99293H356.145C348.735 9.99293 344.835 14.0879 344.835 21.1729V24.4879H338.855L338.92 33.9779H344.705V59.0029H356.795V33.9779H364.66V24.4879ZM388.677 48.4729C386.142 48.4729 384.582 46.9129 384.582 44.4429V33.2629H393.097V23.9029H384.322V13.6979H381.787L366.057 30.4029V33.2629H372.492V46.4579C372.492 54.2579 377.237 59.0029 384.972 59.0029H393.292V48.4729H388.677ZM434.781 41.1279C434.781 30.8579 426.981 22.7979 415.671 22.7979C404.621 22.7979 396.626 30.7279 396.626 41.4529C396.626 52.1779 404.686 60.1729 415.671 60.1729C424.446 60.1729 431.596 55.1679 434.066 47.1729H421.976C420.871 49.2529 418.466 50.4879 415.671 50.4879C411.836 50.4879 409.301 48.4079 408.521 44.3779H434.586C434.716 43.2729 434.781 42.2329 434.781 41.1279ZM415.671 32.2879C419.311 32.2879 421.846 34.1729 422.886 37.6829H408.716C409.691 34.1729 412.161 32.2879 415.671 32.2879ZM459.912 23.7729C455.752 23.7729 452.762 24.9429 450.292 27.8029L448.407 23.9029H440.282V59.0029H452.372V41.1929C452.372 36.7079 454.192 34.8229 458.417 34.8229H463.162V23.7729H459.912Z" fill="#202020"/>
</svg>
