<svg width="624" height="210" viewBox="0 0 624 210" fill="none" xmlns="http://www.w3.org/2000/svg">
<path d="M294.999 129.075C308.15 129.075 317.589 122.621 317.589 110.277C317.589 97.4482 306.778 94.6243 298.387 92.5266C293.143 91.155 288.867 90.1061 288.867 86.8789C288.867 84.2164 291.529 83.0062 294.273 83.0062C297.5 83.0062 300.162 84.7005 300.162 88.3311H315.814C315.814 76.7937 307.988 69.8551 294.434 69.8551C281.121 69.8551 272.973 76.2289 272.973 87.363C272.973 100.191 283.381 102.692 291.529 104.709C296.935 106 301.373 107.049 301.373 110.599C301.373 113.665 298.226 115.44 294.999 115.44C291.449 115.44 288.302 113.423 288.302 109.389H272.246C272.246 121.733 281.202 129.075 294.999 129.075ZM360.182 84.055L358.649 87.4436C355.099 84.4584 350.5 82.7641 345.336 82.7641C332.024 82.7641 322.503 92.3652 322.503 105.839C322.503 119.394 332.024 129.075 345.336 129.075C350.419 129.075 354.937 127.462 358.487 124.557L359.778 127.623H371.396V84.055H360.182ZM347.353 115.844C341.706 115.844 337.591 111.567 337.591 105.839C337.591 100.191 341.706 95.9959 347.353 95.9959C353.001 95.9959 357.116 100.191 357.116 105.839C357.116 111.567 353.001 115.844 347.353 115.844ZM409.025 84.055L400.876 109.873L392.647 84.055H376.188L393.938 127.623H407.492L425 84.055H409.025ZM472.764 105.436C472.764 92.6879 463.082 82.6834 449.044 82.6834C435.328 82.6834 425.404 92.5266 425.404 105.839C425.404 119.151 435.408 129.075 449.044 129.075C459.936 129.075 468.811 122.863 471.877 112.939H456.87C455.498 115.521 452.513 117.054 449.044 117.054C444.283 117.054 441.137 114.472 440.169 109.47H472.522C472.683 108.098 472.764 106.807 472.764 105.436ZM449.044 94.4629C453.562 94.4629 456.708 96.8027 457.999 101.16H440.411C441.621 96.8027 444.687 94.4629 449.044 94.4629Z" fill="white"/>
<path d="M150.998 146.131H232.331" stroke="white" stroke-width="8.68878" stroke-linecap="round" stroke-linejoin="round"/>
<path d="M191.355 64.7979V125.642M191.355 125.642L168.383 102.67M191.355 125.642L214.327 102.67" stroke="white" stroke-width="8.68878" stroke-linecap="round" stroke-linejoin="round"/>
</svg>
