<svg width="624" height="210" viewBox="0 0 624 210" fill="none" xmlns="http://www.w3.org/2000/svg">
<path d="M275.485 129.075C288.636 129.075 298.076 122.621 298.076 110.277C298.076 97.4482 287.264 94.6243 278.874 92.5266C273.629 91.155 269.353 90.1061 269.353 86.8789C269.353 84.2164 272.016 83.0062 274.759 83.0062C277.986 83.0062 280.649 84.7005 280.649 88.3311H296.301C296.301 76.7937 288.475 69.8551 274.92 69.8551C261.608 69.8551 253.459 76.2289 253.459 87.363C253.459 100.191 263.867 102.692 272.016 104.709C277.421 106 281.859 107.049 281.859 110.599C281.859 113.665 278.712 115.44 275.485 115.44C271.935 115.44 268.788 113.423 268.788 109.389H252.733C252.733 121.733 261.688 129.075 275.485 129.075ZM332.116 82.8448C327.759 82.8448 323.725 84.3778 320.498 86.9596V68.3221H305.491V127.623H320.498V104.387C320.498 98.8197 323.322 95.5925 327.84 95.5925C331.793 95.5925 333.568 98.1743 333.568 103.177V127.623H348.575V101.402C348.575 90.1061 342.12 82.8448 332.116 82.8448ZM392.67 84.055L391.137 87.4436C387.587 84.4584 382.988 82.7641 377.824 82.7641C364.512 82.7641 354.992 92.3652 354.992 105.839C354.992 119.394 364.512 129.075 377.824 129.075C382.907 129.075 387.426 127.462 390.976 124.557L392.266 127.623H403.885V84.055H392.67ZM379.841 115.844C374.194 115.844 370.079 111.567 370.079 105.839C370.079 100.191 374.194 95.9959 379.841 95.9959C385.489 95.9959 389.604 100.191 389.604 105.839C389.604 111.567 385.489 115.844 379.841 115.844ZM437.721 83.8937C432.557 83.8937 428.846 85.3459 425.78 88.8959L423.44 84.055H413.355V127.623H428.362V105.516C428.362 99.9493 430.621 97.6095 435.865 97.6095H441.755V83.8937H437.721ZM491.543 105.436C491.543 92.6879 481.861 82.6834 467.822 82.6834C454.106 82.6834 444.182 92.5266 444.182 105.839C444.182 119.151 454.187 129.075 467.822 129.075C478.714 129.075 487.589 122.863 490.655 112.939H475.648C474.277 115.521 471.291 117.054 467.822 117.054C463.062 117.054 459.915 114.472 458.947 109.47H491.3C491.462 108.098 491.543 106.807 491.543 105.436ZM467.822 94.4629C472.34 94.4629 475.487 96.8027 476.778 101.16H459.189C460.399 96.8027 463.465 94.4629 467.822 94.4629Z" fill="white"/>
<path d="M174.945 97.7039L204.126 68.5234M204.126 68.5234H181.775M204.126 68.5234V90.2536" stroke="white" stroke-width="8.68878" stroke-linecap="round" stroke-linejoin="round"/>
<path d="M156.941 77.8346C159.34 77.8346 161.285 75.8896 161.285 73.4902C161.285 71.0909 159.34 69.1458 156.941 69.1458V77.8346ZM202.883 115.088C202.883 112.689 200.938 110.744 198.538 110.744C196.139 110.744 194.194 112.689 194.194 115.088H202.883ZM188.608 138.682H138.932V147.371H188.608V138.682ZM133.346 133.097V83.4203H124.658V133.097H133.346ZM138.932 77.8346H156.941V69.1458H138.932V77.8346ZM194.194 115.088V133.097H202.883V115.088H194.194ZM138.932 138.682C135.847 138.682 133.346 136.181 133.346 133.097H124.658C124.658 140.98 131.048 147.371 138.932 147.371V138.682ZM188.608 147.371C196.492 147.371 202.883 140.98 202.883 133.097H194.194C194.194 136.181 191.693 138.682 188.608 138.682V147.371ZM133.346 83.4203C133.346 80.3354 135.847 77.8346 138.932 77.8346V69.1458C131.048 69.1458 124.658 75.5367 124.658 83.4203H133.346Z" fill="white"/>
</svg>
