<svg width="351" height="210" viewBox="0 0 351 210" fill="none" xmlns="http://www.w3.org/2000/svg">
<path fill-rule="evenodd" clip-rule="evenodd" d="M138.205 69.3952V17.5678H190.032V32.9534H157.749C154.461 32.9534 151.795 35.6192 151.795 38.9077V69.3952H138.205ZM151.795 79.2072H134.347C131.058 79.2072 128.393 76.5414 128.393 73.2529V13.7101C128.393 10.4217 131.058 7.75586 134.347 7.75586H193.89C197.178 7.75586 199.844 10.4217 199.844 13.7101V32.9534H217.292C220.58 32.9534 223.246 35.6192 223.246 38.9077V98.4505C223.246 101.739 220.58 104.405 217.292 104.405H157.749C154.461 104.405 151.795 101.739 151.795 98.4505V79.2072ZM199.844 42.7654H213.434V94.5928H161.607V79.2072H193.89C197.178 79.2072 199.844 76.5414 199.844 73.2529V42.7654ZM190.032 42.7654V69.3952H161.607V42.7654H190.032Z" fill="white"/>
<path d="M32.5824 172.781V165.481H48.5741V154.495H32.5824V147.333H50.3819V135.722H19.2327V184.393H51.0077V172.781H32.5824ZM83.2313 146.847L75.7917 167.566L67.7958 146.847H53.7508L69.2559 181.333C67.5177 185.992 66.0575 187.313 61.1209 187.313H57.5054V198.368H61.9553C71.6894 198.368 76.2784 194.266 81.354 182.724L97.1372 146.847H83.2313ZM137.795 165.272C137.795 154.286 129.451 145.665 117.353 145.665C105.533 145.665 96.9808 154.147 96.9808 165.62C96.9808 177.092 105.602 185.644 117.353 185.644C126.739 185.644 134.388 180.29 137.03 171.738H124.097C122.915 173.963 120.343 175.284 117.353 175.284C113.251 175.284 110.539 173.059 109.705 168.748H137.586C137.725 167.566 137.795 166.454 137.795 165.272ZM117.353 155.816C121.247 155.816 123.958 157.832 125.071 161.587H109.913C110.956 157.832 113.598 155.816 117.353 155.816ZM190.18 158.736C193.865 156.442 196.298 152.548 196.298 148.237C196.298 141.006 189.971 135.791 181.349 135.791H159.378V184.462H181.836C190.805 184.462 197.619 178.483 197.619 170.556C197.619 165.272 194.769 160.892 190.18 158.736ZM183.574 150.462C183.574 152.965 181.836 154.703 179.055 154.703H172.241V146.221H179.055C181.836 146.221 183.574 147.89 183.574 150.462ZM179.542 173.407H172.241V164.577H179.542C182.462 164.577 184.339 166.384 184.339 168.957C184.339 171.599 182.462 173.407 179.542 173.407ZM222.884 185.644C235.121 185.644 243.951 177.231 243.951 165.62C243.951 154.008 235.121 145.665 222.884 145.665C210.647 145.665 201.886 154.008 201.886 165.62C201.886 177.231 210.647 185.644 222.884 185.644ZM222.884 174.033C218.226 174.033 214.819 170.626 214.819 165.689C214.819 160.683 218.226 157.276 222.884 157.276C227.612 157.276 231.019 160.753 231.019 165.689C231.019 170.626 227.612 174.033 222.884 174.033ZM276.78 133.288V148.237C274.138 146.569 270.94 145.665 267.463 145.665C255.991 145.665 247.786 154.008 247.786 165.62C247.786 177.301 255.991 185.714 267.463 185.714C271.844 185.714 275.737 184.184 278.797 181.611L280.048 184.393H289.574V133.288H276.78ZM269.201 174.241C264.404 174.241 260.788 170.556 260.788 165.689C260.788 160.753 264.404 157.067 269.201 157.067C274.069 157.067 277.615 160.753 277.615 165.689C277.615 170.556 274.069 174.241 269.201 174.241ZM323.054 146.847L315.614 167.566L307.618 146.847H293.573L309.078 181.333C307.34 185.992 305.88 187.313 300.943 187.313H297.328V198.368H301.778C311.512 198.368 316.101 194.266 321.176 182.724L336.96 146.847H323.054Z" fill="white"/>
</svg>
