<svg width="98" height="98" viewBox="0 0 98 98" fill="none" xmlns="http://www.w3.org/2000/svg">
<circle cx="48.7734" cy="48.6543" r="48.5" fill="#C1FB50"/>
<path d="M32.4544 45.267C30.551 43.288 27.4036 43.2267 25.4246 45.1302C23.4455 47.0337 23.3843 50.181 25.2877 52.1601L32.4544 45.267ZM44.3638 64.8213L40.7804 68.2678L44.5922 72.231L48.1526 68.0405L44.3638 64.8213ZM72.4548 39.438C74.2328 37.3454 73.9777 34.2078 71.8852 32.4299C69.7927 30.652 66.655 30.907 64.8771 32.9995L72.4548 39.438ZM25.2877 52.1601L40.7804 68.2678L47.9471 61.3748L32.4544 45.267L25.2877 52.1601ZM48.1526 68.0405L72.4548 39.438L64.8771 32.9995L40.5749 61.6021L48.1526 68.0405Z" fill="#202020"/>
</svg>
